PathFileType	4	(X/Y/Z)	Run_300 02
DataRate	CameraRate	NumFrames	NumMarkers	Units	OrigDataRate	OrigDataStartFrame	OrigNumFrames
100	100	7	42	mm	100	3	128
Frame#	Time	LASI			RASI			LPSI			RTH1			RTH2			RTH3			LTH1			LTH2			LTH3			RTB1			RTB2			RTB3			LTB1			LTB2			LTB3			RCAL			RTOE			RMT5			LCAL			LTOE			LMT5			LACR			RACR			CLAV			C7			RUA1			RUA2			RUA3			RLEL			RMEL			LUA1			LUA2			LUA3			LLEL			RFAsuperior			RFAradius			RFAulna			LFAsuperior			LFAradius			LFAulna			LMEL			RPSI		
		X1	Y1	Z1	X2	Y2	Z2	X3	Y3	Z3	X4	Y4	Z4	X5	Y5	Z5	X6	Y6	Z6	X7	Y7	Z7	X8	Y8	Z8	X9	Y9	Z9	X10	Y10	Z10	X11	Y11	Z11	X12	Y12	Z12	X13	Y13	Z13	X14	Y14	Z14	X15	Y15	Z15	X16	Y16	Z16	X17	Y17	Z17	X18	Y18	Z18	X19	Y19	Z19	X20	Y20	Z20	X21	Y21	Z21	X22	Y22	Z22	X23	Y23	Z23	X24	Y24	Z24	X25	Y25	Z25	X26	Y26	Z26	X27	Y27	Z27	X28	Y28	Z28	X29	Y29	Z29	X30	Y30	Z30	X31	Y31	Z31	X32	Y32	Z32	X33	Y33	Z33	X34	Y34	Z34	X35	Y35	Z35	X36	Y36	Z36	X37	Y37	Z37	X38	Y38	Z38	X39	Y39	Z39	X40	Y40	Z40	X41	Y41	Z41	X42	Y42	Z42	

3	  0.030000	1263.934270	949.354741	-407.954042	1254.336341	970.946384	-142.247065	1091.637773	1004.813270	-334.185291	1228.021462	808.288847	-85.849388	1280.345163	714.130549	-93.302517	1246.984067	572.661332	-119.197175	1205.150524	790.242168	-453.174760	1308.781445	681.727304	-433.692146	1269.179048	555.800730	-430.794922	1263.965758	314.532846	-198.818851	1179.088958	237.352773	-157.860945	1164.824283	172.394771	-228.137512	1156.762745	367.817671	-352.626153	1093.931526	388.324733	-399.629146	1020.104496	352.598539	-348.357919	1007.126906	109.567415	-230.890615	1240.929990	 72.152227	-238.487606	1219.930652	 52.499685	-161.060720	862.836032	436.425033	-340.022849	908.872777	199.013841	-314.047174	888.648473	218.571264	-402.724222	1283.101938	1481.522596	-415.261971	1288.987751	1427.148556	-68.631983	1331.041459	1391.158609	-218.072899	1229.745711	1496.152317	-239.064987	1224.724637	1291.775958	 -1.606414	1153.867143	1288.041925	 -0.415443	1163.180976	1218.540931	 14.089067	1126.941385	1150.591203	 33.834012	1086.354976	1146.383841	-50.722484	1199.784560	1390.620692	-496.248283	1109.997593	1366.245701	-477.699511	1122.783193	1291.702426	-524.096365	1086.035350	1236.571735	-547.159978	1215.149695	1146.870930	 15.765896	1361.508577	1147.926871	-66.911885	1347.420434	1080.300504	-43.325419	1155.990852	1178.907763	-534.591103	1295.875459	1114.268826	-446.295711	1263.264699	1055.536020	-476.806470	1048.276813	1225.372045	-463.278764	1085.333480	1013.297454	-243.006929	
4	  0.040000	1263.021508	952.027809	-408.224768	1253.508028	971.621695	-144.676951	1090.986030	1008.630442	-334.645600	1223.032070	808.191931	-86.750996	1272.106767	712.185247	-94.260440	1232.196780	571.366670	-119.094706	1206.646446	794.428502	-454.323856	1315.607844	690.925924	-435.599035	1281.955944	564.151467	-431.559647	1239.750532	311.945825	-198.864925	1153.274310	236.775391	-157.975997	1136.994686	172.299124	-227.700691	1179.043381	370.800796	-352.657082	1114.706448	388.416712	-399.139217	1043.157065	348.960808	-347.678481	977.937076	111.747932	-230.902019	1211.117914	 71.628013	-238.413074	1189.797083	 52.642292	-160.965968	880.470887	423.956799	-337.856782	942.308929	189.958872	-315.254299	920.598930	209.218546	-403.436623	1275.854111	1485.898177	-415.833603	1294.492939	1429.427614	-70.194065	1331.520405	1393.995603	-221.017087	1229.679845	1498.805050	-237.992077	1232.446755	1292.902792	 -4.286454	1161.016438	1289.149433	 -1.446317	1170.413384	1219.786136	 12.028002	1135.271927	1150.842248	 31.135395	1095.511334	1147.470319	-53.873072	1187.324279	1399.130997	-495.289852	1098.752780	1375.627174	-472.588907	1108.278669	1302.654559	-523.326063	1069.637770	1248.181208	-546.181683	1223.196392	1149.164577	 11.563155	1368.008505	1157.505116	-73.784533	1356.844313	1088.953217	-51.650634	1138.685232	1190.152297	-535.921900	1281.179591	1124.425355	-452.264654	1246.857121	1065.980506	-480.901372	1034.323025	1237.189582	-461.343440	1085.198909	1016.885119	-242.789026	
5	  0.050000	1262.751512	955.523492	-407.467537	1252.956634	972.921908	-146.271233	1090.459628	1013.179851	-334.919992	1217.902345	808.548073	-87.779914	1263.370284	710.691892	-95.276153	1216.677726	570.913470	-119.370838	1208.516605	799.593771	-455.619970	1321.969838	700.908940	-437.290932	1293.749650	573.249130	-432.171846	1214.998520	310.320796	-199.063899	1127.006891	237.087118	-158.180649	1109.137891	172.738737	-227.411155	1201.082501	374.519595	-353.283504	1135.048579	388.716321	-398.512284	1066.501943	345.187709	-346.778827	948.959487	114.625458	-230.785124	1181.322185	 71.046903	-238.339781	1159.613041	 52.707522	-160.916730	898.324155	410.157511	-335.122504	976.832524	180.791557	-316.538102	953.289860	199.659893	-404.060729	1269.099096	1491.029914	-416.335093	1299.565940	1432.977554	-72.118000	1332.041396	1397.764567	-224.256461	1229.509537	1502.272748	-237.392098	1239.696652	1295.386732	 -6.964744	1167.904489	1291.616380	 -2.534518	1177.646119	1222.463992	 10.183872	1143.624077	1152.478384	 28.703568	1103.553553	1149.907831	-56.300382	1175.446127	1408.674472	-493.967572	1088.345443	1385.798107	-467.497467	1094.231923	1314.859782	-522.321719	1053.815407	1261.071465	-544.681486	1231.094318	1153.664914	  7.169600	1373.606411	1169.111788	-81.520744	1365.641474	1099.934555	-60.447494	1122.285378	1203.157244	-536.685574	1266.912950	1136.352510	-457.548608	1231.253870	1078.110741	-484.044689	1020.626128	1249.726889	-459.165404	1085.189517	1020.788995	-242.868286	
6	  0.060000	1263.168591	960.294929	-405.603714	1252.831569	975.255523	-146.791833	1090.371868	1018.723594	-335.048744	1212.720433	809.690438	-89.025689	1254.054046	709.917492	-96.582495	1200.155035	571.806579	-120.177959	1210.871253	806.171541	-457.109609	1327.568191	711.948618	-438.674715	1304.122570	583.390840	-432.643784	1189.536040	310.186993	-199.379608	1100.159985	238.745220	-158.508501	1081.320971	174.014996	-227.236602	1222.564378	379.137008	-354.370628	1154.730976	389.242274	-397.689980	1090.050977	341.200073	-345.618347	920.376736	118.749594	-230.365806	1151.553859	 70.410036	-238.346941	1129.402584	 52.684369	-160.962867	916.669625	394.397255	-331.610711	1012.961907	171.610458	-317.769471	987.084978	189.870311	-404.425782	1263.122152	1497.193721	-416.800149	1303.954200	1438.403613	-74.521143	1332.531766	1402.939173	-227.817023	1229.185225	1506.930099	-237.485606	1246.268222	1299.932515	 -9.549628	1174.453782	1295.937782	 -3.475007	1185.012008	1227.045069	  8.627965	1152.068503	1156.079564	 26.728606	1110.187240	1154.305327	-57.660857	1164.651813	1419.591657	-492.192617	1079.307460	1397.090143	-462.411407	1081.054632	1328.769501	-520.917235	1038.967389	1275.727545	-542.418990	1238.792592	1161.096076	  2.705367	1377.845795	1183.537970	-90.054722	1373.452571	1114.099125	-69.679047	1107.249784	1218.436083	-536.650629	1253.452154	1150.627846	-461.850243	1216.966970	1092.459926	-486.092054	1007.656954	1263.474634	-456.556186	1085.468517	1025.215498	-243.283577	
7	  0.070000	1263.783109	966.358642	-403.429410	1253.137722	978.740670	-146.615618	1091.096021	1025.091222	-335.245324	1207.781561	811.750056	-90.480321	1244.515758	709.999925	-98.469882	1182.894349	574.185283	-121.414269	1213.555856	814.013636	-458.742474	1332.332982	723.772604	-439.785986	1313.204506	594.413832	-433.096639	1163.594417	311.678454	-199.603352	1073.017803	241.803982	-158.909744	1053.716300	176.270616	-226.992713	1243.197362	384.221557	-355.177125	1173.784740	389.777017	-396.720000	1113.471884	336.938785	-344.320323	892.369247	124.452343	-229.535737	1121.849116	 69.761375	-238.513549	1099.255724	 52.673160	-161.136319	935.850062	376.827898	-327.558663	1050.590878	162.728174	-318.586783	1021.995580	179.958859	-404.283166	1257.966696	1504.203756	-417.357371	1307.623050	1445.590815	-77.301912	1332.856637	1409.454220	-231.449295	1228.740078	1512.685907	-238.216428	1252.290182	1306.484297	-11.918233	1180.803591	1301.825215	 -3.901712	1192.666018	1233.126209	  7.316796	1160.667484	1161.432713	 25.297812	1115.860950	1160.484667	-57.983082	1155.279153	1431.520466	-490.194093	1071.807479	1409.374707	-457.276049	1069.087164	1344.020347	-519.051793	1025.287191	1291.785974	-539.475816	1246.295831	1170.750877	 -1.454501	1380.747861	1200.225721	-98.548612	1380.181721	1130.748133	-78.818859	1093.536255	1235.189489	-535.934512	1241.098572	1166.573350	-465.272798	1204.140746	1108.387857	-487.560275	996.017844	1278.550399	-453.338342	1086.200154	1030.249230	-243.821799	
8	  0.080000	1264.183297	973.451973	-401.741175	1253.831622	983.237572	-146.288134	1092.748797	1032.039157	-335.637079	1203.382981	814.649848	-92.070982	1235.245928	711.076644	-101.079135	1165.457548	578.031713	-122.856066	1216.348067	822.742807	-460.453853	1336.358744	735.916122	-440.700847	1321.296503	605.994630	-433.587241	1137.641272	314.841266	-199.615468	1046.150446	246.232953	-159.279804	1026.602831	179.704160	-226.542431	1262.850486	389.197601	-355.141258	1192.363079	389.976142	-395.701554	1136.603159	332.330156	-342.999012	865.218353	131.851572	-228.393270	1092.375569	 69.132912	-238.820332	1069.319184	 52.841964	-161.429888	956.158058	357.988515	-323.472439	1089.248846	154.494920	-318.543568	1057.884265	170.023057	-403.407836	1253.572320	1511.763874	-418.125647	1310.665270	1454.118898	-80.329409	1332.979113	1416.960937	-234.882564	1228.260964	1519.257794	-239.410086	1258.043451	1314.603947	-14.033693	1187.166713	1308.923912	 -3.617483	1200.549640	1240.243960	  6.239866	1169.351290	1168.134907	 24.418425	1121.063219	1167.990250	-57.392702	1147.455457	1443.900683	-488.331444	1065.837263	1422.355725	-452.061231	1058.589875	1359.976275	-516.738372	1012.874915	1308.564948	-536.039222	1253.544305	1181.639238	 -4.988619	1382.535894	1218.055488	-106.297975	1385.826137	1148.633280	-87.317341	1080.927507	1252.220402	-534.750739	1230.076353	1183.096637	-468.055451	1192.712745	1124.908258	-488.883351	986.160359	1294.683807	-449.341901	1087.445156	1035.900475	-244.225587	
9	  0.090000	1264.477578	981.209565	-400.728072	1254.934315	988.429296	-146.157062	1095.075314	1039.453638	-336.106521	1199.660895	818.203285	-93.798507	1226.546366	713.240661	-104.370042	1148.397765	583.351959	-124.288958	1219.109757	832.073159	-462.219556	1339.791987	748.074108	-441.459801	1328.546965	617.882961	-434.055391	1112.174164	319.766480	-199.588398	1020.139651	252.106639	-159.527023	1000.314165	184.611676	-225.936303	1281.576461	393.741949	-354.413712	1210.620670	389.515041	-394.708213	1159.657356	327.321084	-341.646955	839.309323	140.943499	-227.204400	1063.379330	 68.520598	-239.186060	1039.720314	 53.292537	-161.804845	977.778994	338.339375	-319.871984	1128.454964	147.142459	-317.275656	1094.692553	160.113058	-401.687347	1249.920033	1519.678374	-419.133753	1313.212158	1463.644195	-83.561397	1333.024015	1425.126335	-238.075293	1227.808834	1526.402915	-240.926062	1263.713207	1323.924266	-15.953951	1193.656903	1317.260674	 -2.756982	1208.359419	1248.414884	  5.498731	1177.902667	1176.054536	 24.077073	1125.920633	1176.566808	-55.933947	1141.136913	1456.386840	-486.875786	1061.395983	1435.790103	-446.887671	1049.722487	1376.135876	-513.996459	1001.835810	1325.546487	-532.171222	1260.404068	1193.311761	 -7.811871	1383.413060	1236.095825	-113.273414	1390.402274	1166.828043	-95.010152	1069.359145	1268.799508	-533.187877	1220.512714	1199.450577	-470.386845	1182.620421	1141.360382	-490.057785	978.208901	1311.379432	-444.516546	1089.119392	1042.140574	-244.359553	
